<svg width="42" height="42" viewBox="0 0 42 42" fill="none" xmlns="http://www.w3.org/2000/svg">
<path fill-rule="evenodd" clip-rule="evenodd" d="M20.6489 0C9.24244 0 0 9.24721 0 20.6489C0 32.0554 9.24721 41.2979 20.6489 41.2979C32.0554 41.2979 41.2979 32.0506 41.2979 20.6489C41.3026 9.24721 32.0554 0 20.6489 0ZM13.9575 14.668C13.9575 13.5612 14.8547 12.6641 15.9614 12.6641C17.0682 12.6641 17.9653 13.5612 17.9653 14.668V26.6367C17.9653 27.7434 17.0682 28.6406 15.9614 28.6406C14.8547 28.6406 13.9575 27.7434 13.9575 26.6367V14.668ZM25.3364 12.6641C24.2297 12.6641 23.3325 13.5612 23.3325 14.668V26.6367C23.3325 27.7434 24.2297 28.6406 25.3364 28.6406C26.4432 28.6406 27.3403 27.7434 27.3403 26.6367V14.668C27.3403 13.5612 26.4432 12.6641 25.3364 12.6641Z" fill="url(#paint0_linear_4318_4313)"/>
<defs>
<linearGradient id="paint0_linear_4318_4313" x1="20.6489" y1="0" x2="20.6489" y2="41.2979" gradientUnits="userSpaceOnUse">
<stop stop-color="#63C1FF"/>
<stop offset="1" stop-color="#0099FF"/>
</linearGradient>
</defs>
</svg>
