<svg width="10" height="14" viewBox="0 0 10 14" fill="none" xmlns="http://www.w3.org/2000/svg">
<path d="M5.79926 11.9556V13.5689H4.63414V11.9999C2.08797 11.8042 0.0800781 9.71316 0.0800781 7.35262C0.0800781 7.19812 0.141455 7.04994 0.250706 6.94069C0.359957 6.83144 0.508133 6.77006 0.662638 6.77006C0.817142 6.77006 0.965319 6.83144 1.07457 6.94069C1.18382 7.04994 1.2452 7.19812 1.2452 7.35262C1.2452 9.18575 2.9354 10.8495 5.02407 10.8495C7.11274 10.8495 8.80216 9.18497 8.80216 7.35262C8.80215 7.27611 8.81721 7.20035 8.84648 7.12966C8.87575 7.05897 8.91866 6.99474 8.97276 6.94063C9.02686 6.88653 9.09108 6.84361 9.16177 6.81433C9.23245 6.78505 9.30821 6.76998 9.38472 6.76998C9.46123 6.76998 9.53699 6.78505 9.60768 6.81433C9.67836 6.84361 9.74259 6.88653 9.79669 6.94063C9.85078 6.99474 9.89369 7.05897 9.92296 7.12966C9.95223 7.20035 9.96729 7.27611 9.96728 7.35262C9.96728 9.59276 8.15979 11.5906 5.79926 11.9556ZM5.04504 0.125C5.66306 0.125 6.25576 0.370507 6.69277 0.807511C7.12977 1.24452 7.37528 1.83722 7.37528 2.45524V7.11572C7.37528 7.42173 7.31501 7.72474 7.1979 8.00746C7.08079 8.29018 6.90915 8.54706 6.69277 8.76344C6.47639 8.97983 6.2195 9.15147 5.93678 9.26858C5.65407 9.38568 5.35105 9.44595 5.04504 9.44595C4.73903 9.44595 4.43601 9.38568 4.1533 9.26858C3.87058 9.15147 3.6137 8.97983 3.39731 8.76344C3.18093 8.54706 3.00929 8.29018 2.89218 8.00746C2.77507 7.72474 2.7148 7.42173 2.7148 7.11572V2.45524C2.7148 1.83722 2.96031 1.24452 3.39731 0.807511C3.83432 0.370507 4.42702 0.125 5.04504 0.125Z" fill="white"/>
</svg>
