<svg width="15" height="12" viewBox="0 0 15 12" fill="none" xmlns="http://www.w3.org/2000/svg">
<path d="M14.5782 4.03836C14.5685 3.93235 14.5195 3.83378 14.441 3.76192C14.3624 3.69006 14.2599 3.65008 14.1534 3.64978H12.8722V2.08652C12.8716 1.97389 12.8265 1.86606 12.7467 1.78662C12.6668 1.70717 12.5588 1.66258 12.4461 1.66258H6.24677L5.10574 0.400547C5.06096 0.350645 5.00464 0.312465 4.9417 0.289342C4.89091 0.268848 4.8367 0.25815 4.78193 0.257813H1.37334C1.26063 0.257812 1.15252 0.302467 1.07266 0.382003C0.992805 0.461539 0.947716 0.569476 0.947266 0.682182L0.947266 10.8589C0.947941 10.9715 0.993129 11.0792 1.07296 11.1586C1.15279 11.2379 1.26078 11.2825 1.37334 11.2825H11.7998C11.8911 11.2859 11.981 11.26 12.0565 11.2084C12.1319 11.1569 12.1887 11.0825 12.2186 10.9961L14.5595 4.2318C14.5808 4.16661 14.5867 4.10142 14.5782 4.03836ZM3.71674 3.64978H3.69416C3.51862 3.65106 3.3533 3.76141 3.29365 3.93611L1.79984 8.25479V1.1057H4.59701L5.73718 2.36602C5.79999 2.43566 5.88428 2.4823 5.97664 2.49853C6.00731 2.50705 6.04055 2.51046 6.07378 2.51046H12.0218V3.64978H3.71674Z" fill="white"/>
</svg>
