<svg width="80" height="67" viewBox="0 0 80 67" fill="none" xmlns="http://www.w3.org/2000/svg">
<path d="M12.1414 0.96875C5.88364 0.96875 0.811584 6.02759 0.811584 12.2985V55.5097C0.811584 61.7674 5.87708 66.8395 12.1414 66.8395H68.5267C74.7844 66.8395 79.8565 61.7807 79.8565 55.5097V12.2985C79.8565 6.04081 74.791 0.96875 68.5267 0.96875H12.1414ZM58.1718 30.2812C58.1718 30.2812 57.276 28.5686 54.1076 28.5686C50.5177 28.5686 49.4374 30.2286 49.4374 30.2286L35.8615 51.7288C35.8615 51.7288 35.1237 53.1648 33.3123 53.1648C32.7638 53.1676 32.2226 53.0386 31.7343 52.7887C31.2459 52.5388 30.8248 52.1753 30.5062 51.7288L23.3658 43.3566C23.3658 43.3566 21.5347 40.8667 19.1567 40.8667C16.7853 40.8667 14.8224 43.6201 14.8224 43.6201L9.28268 50.3718V14.8411C9.28268 11.7254 11.7924 9.20264 14.9015 9.20264H65.7668C68.8693 9.20264 71.3856 11.7254 71.3856 14.8675V47.6249L58.1718 30.2812ZM37.5082 25.6702C37.5082 30.2154 33.7207 33.904 29.0439 33.904C24.3671 33.904 20.5729 30.2154 20.5729 25.6702C20.5729 21.1251 24.3671 17.4364 29.0439 17.4364C33.7207 17.4364 37.5082 21.1252 37.5082 25.6702Z" fill="#CFD8ED"/>
</svg>
