<svg width="15" height="15" viewBox="0 0 15 15" fill="none" xmlns="http://www.w3.org/2000/svg">
<path fill-rule="evenodd" clip-rule="evenodd" d="M4.30708 13.5878C5.23077 14.041 6.24612 14.2763 7.27503 14.2757C8.91238 14.2751 10.4936 13.6787 11.7235 12.5978C12.9534 11.517 13.7479 10.0255 13.9588 8.40176C13.9717 8.3053 13.9654 8.20724 13.9403 8.11322C13.9151 8.01921 13.8716 7.9311 13.8123 7.85396C13.753 7.77683 13.6789 7.71221 13.5945 7.66381C13.5101 7.61541 13.4169 7.5842 13.3204 7.57197C13.2238 7.55974 13.1258 7.56674 13.032 7.59256C12.9381 7.61838 12.8503 7.66251 12.7736 7.72241C12.6969 7.78231 12.6328 7.85679 12.585 7.94157C12.5373 8.02635 12.5067 8.11975 12.4952 8.21638C12.3519 9.33464 11.8533 10.3774 11.073 11.191C10.2926 12.0047 9.27159 12.5463 8.16029 12.7362C7.04899 12.926 5.90609 12.7541 4.89984 12.2456C3.89359 11.7372 3.07716 10.9191 2.57073 9.91189C2.0643 8.90463 1.89462 7.76139 2.08669 6.65047C2.27875 5.53954 2.82241 4.51963 3.63762 3.74087C4.45283 2.96211 5.49653 2.46564 6.61507 2.32456C7.73361 2.18347 8.8679 2.40523 9.85095 2.95717C10.0188 3.03999 10.212 3.05535 10.3908 3.00008C10.5697 2.94482 10.7205 2.82313 10.8124 2.66004C10.9042 2.49696 10.9301 2.30487 10.8847 2.1233C10.8392 1.94172 10.726 1.78445 10.5681 1.68384C9.67129 1.17954 8.67073 0.887656 7.6434 0.830648C6.61608 0.77364 5.58937 0.953023 4.64224 1.355C3.69511 1.75698 2.8528 2.37084 2.18009 3.14937C1.50738 3.92789 1.02221 4.85035 0.761875 5.84577C0.501545 6.8412 0.472999 7.88307 0.678433 8.89126C0.883866 9.89944 1.31781 10.8471 1.94687 11.6613C2.57594 12.4755 3.38338 13.1345 4.30708 13.5878ZM7.22472 10.6427C7.32267 10.6829 7.42758 10.7034 7.53345 10.703C7.63854 10.703 7.74261 10.6823 7.83971 10.6422C7.93681 10.602 8.02505 10.5431 8.09938 10.4688L13.7147 4.80465C13.7538 4.77579 13.7883 4.74125 13.8172 4.70219C13.9575 4.5411 14.0282 4.33084 14.0135 4.11767C13.9989 3.90449 13.9002 3.70586 13.7391 3.56548C13.578 3.42509 13.3678 3.35444 13.1546 3.36908C12.9414 3.38372 12.7428 3.48244 12.6024 3.64353L7.5237 8.74661L4.8697 6.08286C4.71358 5.95218 4.51397 5.88509 4.31062 5.89496C4.10726 5.90484 3.91509 5.99094 3.77236 6.13613C3.62964 6.28132 3.54683 6.47494 3.54044 6.67843C3.53405 6.88192 3.60453 7.08036 3.73786 7.23422L6.96265 10.4688C7.03772 10.5434 7.12678 10.6025 7.22472 10.6427Z" fill="white"/>
</svg>
