<svg width="14" height="14" viewBox="0 0 14 14" fill="none" xmlns="http://www.w3.org/2000/svg">
<path d="M7.27391 13.7031C6.24518 13.7038 5.23 13.4685 4.30645 13.0153C3.38291 12.5622 2.57561 11.9032 1.94664 11.0892C1.31768 10.2751 0.88381 9.32763 0.67841 8.31961C0.473011 7.31159 0.501552 6.26989 0.761839 5.27463C1.02213 4.27937 1.50722 3.35707 2.17982 2.57867C2.85242 1.80027 3.69459 1.18651 4.64156 0.784599C5.58853 0.382688 6.61508 0.203335 7.64223 0.260334C8.66938 0.317333 9.66978 0.609165 10.5665 1.11339C10.7243 1.21398 10.8375 1.37122 10.883 1.55277C10.9284 1.73431 10.9025 1.92637 10.8107 2.08942C10.7188 2.25248 10.568 2.37415 10.3892 2.42941C10.2104 2.48467 10.0172 2.46931 9.84941 2.3865C8.86652 1.83465 7.73242 1.61294 6.61406 1.754C5.49571 1.89506 4.45218 2.39144 3.63711 3.17007C2.82203 3.94871 2.27847 4.96845 2.08643 6.07919C1.8944 7.18993 2.06404 8.33298 2.57039 9.34007C3.07674 10.3472 3.89304 11.1651 4.89912 11.6734C5.9052 12.1818 7.04791 12.3537 8.15903 12.1639C9.27015 11.974 10.291 11.4325 11.0712 10.619C11.8515 9.80546 12.3499 8.76292 12.4932 7.64485C12.5047 7.54823 12.5353 7.45485 12.5831 7.37008C12.6308 7.28532 12.6949 7.21084 12.7716 7.15095C12.8483 7.09106 12.9361 7.04694 13.0299 7.02113C13.1237 6.99531 13.2217 6.98831 13.3182 7.00054C13.4148 7.01277 13.5079 7.04398 13.5923 7.09236C13.6768 7.14075 13.7508 7.20537 13.8101 7.28249C13.8694 7.35961 13.9129 7.44771 13.9381 7.54171C13.9632 7.63571 13.9695 7.73375 13.9566 7.83019C13.7457 9.45364 12.9513 10.9449 11.7216 12.0256C10.4919 13.1063 8.91099 13.7025 7.27391 13.7031Z" fill="white"/>
</svg>
