<svg width="15" height="14" viewBox="0 0 15 14" fill="none" xmlns="http://www.w3.org/2000/svg">
<path d="M7.68407 13.7031C6.65534 13.7038 5.64016 13.4685 4.71661 13.0153C3.79306 12.5622 2.98576 11.9032 2.3568 11.0892C1.72783 10.2751 1.29397 9.32763 1.08857 8.31961C0.883167 7.31159 0.911708 6.26989 1.172 5.27463C1.43228 4.27937 1.91738 3.35707 2.58998 2.57867C3.26257 1.80027 4.10474 1.18651 5.05172 0.784599C5.99869 0.382688 7.02523 0.203335 8.05239 0.260334C9.07954 0.317333 10.0799 0.609165 10.9766 1.11339C11.1344 1.21398 11.2477 1.37122 11.2931 1.55277C11.3385 1.73431 11.3127 1.92637 11.2208 2.08942C11.129 2.25248 10.9782 2.37415 10.7994 2.42941C10.6206 2.48467 10.4274 2.46931 10.2596 2.3865C9.27668 1.83465 8.14258 1.61294 7.02422 1.754C5.90586 1.89506 4.86234 2.39144 4.04726 3.17007C3.23219 3.94871 2.68862 4.96845 2.49659 6.07919C2.30456 7.18993 2.4742 8.33298 2.98055 9.34007C3.48689 10.3472 4.30319 11.1651 5.30927 11.6734C6.31536 12.1818 7.45807 12.3537 8.56918 12.1639C9.6803 11.974 10.7011 11.4325 11.4814 10.619C12.2616 9.80546 12.7601 8.76292 12.9034 7.64485C12.9149 7.54823 12.9454 7.45485 12.9932 7.37008C13.041 7.28532 13.1051 7.21084 13.1818 7.15095C13.2584 7.09106 13.3462 7.04694 13.44 7.02113C13.5339 6.99531 13.6319 6.98831 13.7284 7.00054C13.8249 7.01277 13.9181 7.04398 14.0025 7.09236C14.0869 7.14075 14.1609 7.20537 14.2203 7.28249C14.2796 7.35961 14.3231 7.44771 14.3482 7.54171C14.3734 7.63571 14.3796 7.73375 14.3667 7.83019C14.1559 9.45364 13.3615 10.9449 12.1318 12.0256C10.9021 13.1063 9.32115 13.7025 7.68407 13.7031Z" fill="#BDC8E4"/>
</svg>
