<svg width="15" height="15" viewBox="0 0 15 15" fill="none" xmlns="http://www.w3.org/2000/svg">
<path fill-rule="evenodd" clip-rule="evenodd" d="M4.71723 13.5878C5.64093 14.041 6.65628 14.2763 7.68518 14.2757C9.32253 14.2751 10.9037 13.6787 12.1336 12.5978C13.3635 11.517 14.1581 10.0255 14.3689 8.40176C14.3819 8.3053 14.3756 8.20724 14.3504 8.11322C14.3253 8.01921 14.2818 7.9311 14.2225 7.85396C14.1631 7.77683 14.0891 7.71221 14.0047 7.66381C13.9202 7.61541 13.8271 7.5842 13.7305 7.57197C13.634 7.55974 13.5359 7.56674 13.4421 7.59256C13.3483 7.61838 13.2605 7.66251 13.1838 7.72241C13.1071 7.78231 13.043 7.85679 12.9952 7.94157C12.9474 8.02635 12.9169 8.11975 12.9053 8.21638C12.762 9.33464 12.2635 10.3774 11.4831 11.191C10.7027 12.0047 9.68175 12.5463 8.57045 12.7362C7.45914 12.926 6.31624 12.7541 5.31 12.2456C4.30375 11.7372 3.48731 10.9191 2.98088 9.91189C2.47445 8.90463 2.30478 7.76139 2.49684 6.65047C2.68891 5.53954 3.23256 4.51963 4.04777 3.74087C4.86299 2.96211 5.90668 2.46564 7.02522 2.32456C8.14377 2.18347 9.27805 2.40523 10.2611 2.95717C10.429 3.03999 10.6222 3.05535 10.801 3.00008C10.9798 2.94482 11.1307 2.82313 11.2225 2.66004C11.3144 2.49696 11.3403 2.30487 11.2948 2.1233C11.2494 1.94172 11.1361 1.78445 10.9783 1.68384C10.0814 1.17954 9.08088 0.887656 8.05356 0.830648C7.02624 0.77364 5.99953 0.953023 5.0524 1.355C4.10527 1.75698 3.26295 2.37084 2.59025 3.14937C1.91754 3.92789 1.43236 4.85035 1.17203 5.84577C0.911701 6.8412 0.883155 7.88307 1.08859 8.89126C1.29402 9.89944 1.72796 10.8471 2.35703 11.6613C2.9861 12.4755 3.79353 13.1345 4.71723 13.5878ZM7.63488 10.6427C7.73283 10.6829 7.83774 10.7034 7.94361 10.703C8.0487 10.703 8.15276 10.6823 8.24987 10.6422C8.34697 10.602 8.43521 10.5431 8.50954 10.4688L14.1249 4.80465C14.1639 4.77579 14.1985 4.74125 14.2273 4.70219C14.3677 4.5411 14.4383 4.33084 14.4237 4.11767C14.4091 3.90449 14.3103 3.70586 14.1493 3.56548C13.9882 3.42509 13.7779 3.35444 13.5647 3.36908C13.3516 3.38372 13.1529 3.48244 13.0125 3.64353L7.93385 8.74661L5.27986 6.08286C5.12374 5.95218 4.92413 5.88509 4.72077 5.89496C4.51742 5.90484 4.32524 5.99094 4.18252 6.13613C4.03979 6.28132 3.95699 6.47494 3.9506 6.67843C3.9442 6.88192 4.01469 7.08036 4.14802 7.23422L7.37281 10.4688C7.44788 10.5434 7.53693 10.6025 7.63488 10.6427Z" fill="#BDC8E4"/>
</svg>
