<svg width="14" height="15" viewBox="0 0 14 15" fill="none" xmlns="http://www.w3.org/2000/svg">
<circle cx="7.13672" cy="7.28906" r="6.03193" stroke="#FFE24D" stroke-width="1.38927"/>
<path d="M8.14778 3.88281L7.9241 7.82139H6.34867L6.125 3.88281H8.14778ZM7.13639 10.6902C6.91596 10.6902 6.74091 10.6773 6.61124 10.6513C6.48158 10.6254 6.38109 10.5768 6.30977 10.5055C6.24494 10.4341 6.2028 10.3369 6.18335 10.2137C6.1639 10.0905 6.15417 9.92845 6.15417 9.72747C6.15417 9.52649 6.1639 9.36441 6.18335 9.24123C6.2028 9.11156 6.24494 9.01431 6.30977 8.94948C6.38109 8.87816 6.48158 8.82954 6.61124 8.80361C6.74091 8.77767 6.91596 8.76471 7.13639 8.76471C7.35682 8.76471 7.53187 8.77767 7.66153 8.80361C7.7912 8.82954 7.88845 8.87816 7.95328 8.94948C8.0246 9.01431 8.06998 9.11156 8.08943 9.24123C8.10888 9.36441 8.1186 9.52649 8.1186 9.72747C8.1186 9.92845 8.10888 10.0905 8.08943 10.2137C8.06998 10.3369 8.0246 10.4341 7.95328 10.5055C7.88845 10.5768 7.7912 10.6254 7.66153 10.6513C7.53187 10.6773 7.35682 10.6902 7.13639 10.6902Z" fill="#FFE24D"/>
</svg>
