<svg width="15" height="15" viewBox="0 0 15 15" fill="none" xmlns="http://www.w3.org/2000/svg">
<path fill-rule="evenodd" clip-rule="evenodd" d="M4.35395 13.5565C5.27765 14.0097 6.293 14.2451 7.3219 14.2444C8.95925 14.2438 10.5404 13.6474 11.7703 12.5666C13.0002 11.4857 13.7948 9.99422 14.0057 8.37051C14.0186 8.27405 14.0123 8.17599 13.9872 8.08197C13.962 7.98796 13.9185 7.89985 13.8592 7.82271C13.7998 7.74558 13.7258 7.68096 13.6414 7.63256C13.5569 7.58416 13.4638 7.55295 13.3672 7.54072C13.2707 7.52849 13.1727 7.53549 13.0788 7.56131C12.985 7.58713 12.8972 7.63126 12.8205 7.69116C12.7438 7.75106 12.6797 7.82554 12.6319 7.91032C12.5841 7.9951 12.5536 8.0885 12.5421 8.18513C12.3988 9.30339 11.9002 10.3461 11.1198 11.1598C10.3395 11.9734 9.31847 12.515 8.20716 12.7049C7.09586 12.8948 5.95296 12.7228 4.94671 12.2144C3.94047 11.7059 3.12403 10.8879 2.6176 9.88064C2.11117 8.87338 1.9415 7.73014 2.13356 6.61922C2.32563 5.50829 2.86928 4.48838 3.68449 3.70962C4.4997 2.93086 5.5434 2.43439 6.66194 2.29331C7.78048 2.15222 8.91477 2.37398 9.89783 2.92592C10.0657 3.00874 10.2589 3.0241 10.4377 2.96883C10.6165 2.91357 10.7674 2.79188 10.8593 2.62879C10.9511 2.46571 10.977 2.27362 10.9315 2.09205C10.8861 1.91047 10.7728 1.7532 10.615 1.65259C9.71816 1.14829 8.7176 0.856406 7.69028 0.799398C6.66296 0.74239 5.63624 0.921773 4.68911 1.32375C3.74198 1.72573 2.89967 2.33959 2.22697 3.11812C1.55426 3.89664 1.06908 4.8191 0.80875 5.81452C0.54842 6.80995 0.519874 7.85182 0.725308 8.86001C0.930741 9.86819 1.36468 10.8158 1.99375 11.63C2.62282 12.4442 3.43025 13.1033 4.35395 13.5565ZM7.2716 10.6115C7.36955 10.6517 7.47446 10.6721 7.58033 10.6717C7.68542 10.6717 7.78948 10.6511 7.88659 10.6109C7.98369 10.5707 8.07192 10.5118 8.14625 10.4375L13.7616 4.7734C13.8006 4.74454 13.8352 4.71 13.864 4.67094C14.0044 4.50985 14.0751 4.29959 14.0604 4.08642C14.0458 3.87324 13.9471 3.67461 13.786 3.53423C13.6249 3.39384 13.4146 3.32319 13.2015 3.33783C12.9883 3.35247 12.7896 3.45119 12.6493 3.61228L7.57057 8.71536L4.91658 6.05161C4.76046 5.92093 4.56085 5.85384 4.35749 5.86371C4.15414 5.87359 3.96196 5.95969 3.81924 6.10488C3.67651 6.25007 3.59371 6.44369 3.58731 6.64718C3.58092 6.85067 3.65141 7.04911 3.78474 7.20297L7.00952 10.4375C7.08459 10.5122 7.17365 10.5713 7.2716 10.6115Z" fill="#68F1AC"/>
</svg>
