<svg width="20" height="19" viewBox="0 0 20 19" fill="none" xmlns="http://www.w3.org/2000/svg">
<path d="M5.32359 5.34793H5.32361C5.49247 5.34791 5.6569 5.29379 5.79277 5.19352C5.92865 5.09325 6.02884 4.95209 6.07866 4.79073L6.72513 2.6996L6.72514 2.69956C6.73276 2.67489 6.74807 2.65332 6.76883 2.63799C6.7896 2.62266 6.81473 2.61438 6.84054 2.61437H13.1586C13.1844 2.61438 13.2096 2.62266 13.2303 2.63799C13.2511 2.65332 13.2664 2.6749 13.274 2.69956L13.274 2.69959L13.9205 4.791C13.9704 4.9523 14.0706 5.0934 14.2065 5.19362C14.3423 5.29385 14.5067 5.34792 14.6756 5.34793H16.6057C16.7412 5.34793 16.8754 5.37463 17.0006 5.42649C17.1258 5.47835 17.2396 5.55437 17.3354 5.65021C17.4313 5.74604 17.5073 5.85981 17.5592 5.98502C17.611 6.11023 17.6377 6.24443 17.6377 6.37996V15.4918C17.6377 15.6274 17.611 15.7616 17.5592 15.8868C17.5073 16.012 17.4313 16.1258 17.3354 16.2216C17.2396 16.3174 17.1258 16.3934 17.0006 16.4453C16.8754 16.4972 16.7412 16.5239 16.6057 16.5239H3.39346C3.25794 16.5239 3.12374 16.4972 2.99852 16.4453L2.95759 16.5441L2.99852 16.4453C2.87331 16.3934 2.75954 16.3174 2.66371 16.2216C2.56788 16.1258 2.49186 16.012 2.44 15.8868C2.38813 15.7616 2.36144 15.6274 2.36144 15.4918V6.37996C2.36144 6.24443 2.38813 6.11023 2.44 5.98502C2.49186 5.85981 2.56788 5.74604 2.66371 5.65021C2.75954 5.55437 2.87331 5.47835 2.99852 5.42649C3.12374 5.37463 3.25794 5.34793 3.39346 5.34793H5.32359ZM5.21479 2.23276L5.31698 2.26435L5.21479 2.23277L4.74058 3.76723H3.39346C1.95052 3.76723 0.780734 4.93702 0.780734 6.37996V15.4918C0.780734 16.9348 1.95052 18.1046 3.39346 18.1046H16.6057C18.0486 18.1046 19.2184 16.9348 19.2184 15.4918V6.37996C19.2184 4.93702 18.0486 3.76723 16.6057 3.76723H15.2586L14.7844 2.23277C14.677 1.88545 14.4613 1.58164 14.1687 1.36586C13.8762 1.15007 13.5222 1.03366 13.1587 1.03366H6.84049C6.47697 1.03366 6.12299 1.15007 5.83044 1.36586C5.53789 1.58164 5.32213 1.88545 5.21479 2.23276ZM6.47566 10.4803C6.47566 12.4264 8.05343 14.0042 9.99958 14.0042C11.9457 14.0042 13.5235 12.4264 13.5235 10.4803C13.5235 8.53416 11.9457 6.95639 9.99958 6.95639C8.05343 6.95639 6.47566 8.53416 6.47566 10.4803ZM11.3736 11.8544C11.0092 12.2188 10.515 12.4235 9.99958 12.4235C9.48421 12.4235 8.98994 12.2188 8.62552 11.8544C8.2611 11.4899 8.05637 10.9957 8.05637 10.4803C8.05637 9.96493 8.2611 9.47067 8.62552 9.10625C8.98994 8.74182 9.48421 8.53709 9.99958 8.53709C10.515 8.53709 11.0092 8.74182 11.3736 9.10625C11.7381 9.47067 11.9428 9.96493 11.9428 10.4803C11.9428 10.9957 11.7381 11.4899 11.3736 11.8544Z" fill="white" stroke="#0099FF" stroke-width="0.213922"/>
</svg>
