<svg width="13" height="11" viewBox="0 0 13 11" fill="none" xmlns="http://www.w3.org/2000/svg">
<path d="M8.91047 3.14917H2.36044L3.89083 1.61878C4.13568 1.37391 4.13568 1.00662 3.89083 0.761769C3.64597 0.516917 3.27867 0.516903 3.0338 0.761769L0.462758 3.33281C0.401552 3.39402 0.340332 3.45524 0.340332 3.57767V3.82253C0.340332 3.88375 0.340332 3.94496 0.401552 3.94496L0.462758 4.00618C0.462758 4.0674 0.523978 4.0674 0.585198 4.1286L3.15624 6.0875C3.27867 6.14871 3.40109 6.20993 3.52353 6.20993C3.70718 6.20993 3.89083 6.14871 4.01325 5.96506C4.1969 5.72021 4.1969 5.2917 3.89083 5.10805L2.72773 4.37347H8.9717C10.2572 4.37347 11.3591 5.41412 11.3591 6.76087C11.3591 8.10761 10.2572 9.14827 8.91047 9.14827H4.56419C4.1969 9.14827 3.95203 9.39313 3.95203 9.76042C3.95203 10.1277 4.1969 10.3726 4.56419 10.3726H8.91047C10.8694 10.3726 12.5222 8.78097 12.5222 6.76087C12.5222 4.74076 10.9306 3.14917 8.91047 3.14917Z" fill="white"/>
</svg>
