<svg width="16" height="16" viewBox="0 0 16 16" fill="none" xmlns="http://www.w3.org/2000/svg">
<path d="M5.69637 0.515625H14.1525C14.5263 0.515625 14.8848 0.664111 15.1491 0.928418C15.4134 1.19272 15.5619 1.5512 15.5619 1.92499V10.3812C15.5619 10.7549 15.4134 11.1134 15.1491 11.3777C14.8848 11.642 14.5263 11.7905 14.1525 11.7905H5.69637C5.32258 11.7905 4.9641 11.642 4.6998 11.3777C4.43549 11.1134 4.287 10.7549 4.287 10.3812V1.92499C4.287 1.5512 4.43549 1.19272 4.6998 0.928418C4.9641 0.664111 5.32258 0.515625 5.69637 0.515625ZM5.69637 1.72365C5.64297 1.72365 5.59176 1.74486 5.554 1.78262C5.51624 1.82038 5.49503 1.87159 5.49503 1.92499V10.3812C5.49503 10.4076 5.50024 10.4338 5.51035 10.4582C5.52047 10.4826 5.5353 10.5048 5.554 10.5235C5.57269 10.5422 5.59489 10.5571 5.61932 10.5672C5.64374 10.5773 5.66993 10.5825 5.69637 10.5825H14.1525C14.2059 10.5825 14.2571 10.5613 14.2949 10.5235C14.3327 10.4858 14.3539 10.4346 14.3539 10.3812V1.92499C14.3539 1.87159 14.3327 1.82038 14.2949 1.78262C14.2571 1.74486 14.2059 1.72365 14.1525 1.72365H5.69637ZM10.3271 12.9985C10.3271 12.8384 10.3908 12.6847 10.504 12.5714C10.6173 12.4582 10.7709 12.3945 10.9311 12.3945C11.0913 12.3945 11.245 12.4582 11.3582 12.5714C11.4715 12.6847 11.5352 12.8384 11.5352 12.9985V14.4079C11.5352 14.7817 11.3867 15.1402 11.1224 15.4045C10.8581 15.6688 10.4996 15.8173 10.1258 15.8173H1.66962C1.29583 15.8173 0.937353 15.6688 0.673047 15.4045C0.40874 15.1402 0.260254 14.7817 0.260254 14.4079V5.95174C0.260254 5.57795 0.40874 5.21947 0.673047 4.95517C0.937353 4.69086 1.29583 4.54237 1.66962 4.54237H3.07898C3.23917 4.54237 3.39281 4.60601 3.50608 4.71929C3.61935 4.83256 3.68299 4.98619 3.68299 5.14639C3.68299 5.30658 3.61935 5.46021 3.50608 5.57349C3.39281 5.68676 3.23917 5.7504 3.07898 5.7504H1.66962C1.61622 5.7504 1.56501 5.77161 1.52725 5.80937C1.48949 5.84713 1.46828 5.89834 1.46828 5.95174V14.4079C1.46828 14.4613 1.48949 14.5125 1.52725 14.5503C1.56501 14.588 1.61622 14.6092 1.66962 14.6092H10.1258C10.1792 14.6092 10.2304 14.588 10.2682 14.5503C10.3059 14.5125 10.3271 14.4613 10.3271 14.4079V12.9985Z" fill="#0099FF"/>
</svg>
