<svg width="16" height="17" viewBox="0 0 16 17" fill="none" xmlns="http://www.w3.org/2000/svg">
<path d="M15.3069 3.63882C15.3854 3.63882 15.4606 3.66999 15.5161 3.72549C15.5716 3.78098 15.6028 3.85625 15.6028 3.93473V5.11838C15.6028 5.19686 15.5716 5.27213 15.5161 5.32762C15.4606 5.38312 15.3854 5.41429 15.3069 5.41429H13.8392V15.4753C13.8392 15.7791 13.7226 16.0712 13.5132 16.2913C13.3039 16.5114 13.018 16.6426 12.7147 16.6578L12.6555 16.659H3.1863C2.88257 16.6591 2.59043 16.5424 2.37033 16.3331C2.15023 16.1238 2.01902 15.8379 2.00383 15.5345V15.4753L2.00265 5.41429H0.511245C0.432764 5.41429 0.357497 5.38312 0.302003 5.32762C0.246509 5.27213 0.215332 5.19686 0.215332 5.11838V3.93473C0.215332 3.85625 0.246509 3.78098 0.302003 3.72549C0.357497 3.66999 0.432764 3.63882 0.511245 3.63882H15.3069ZM12.0637 5.41429H3.77812V14.8835H12.0637V5.41429ZM8.79681 7.7816V12.2203H7.02133V7.7816H8.79681ZM10.8682 0.679688C10.9467 0.679688 11.0219 0.710864 11.0774 0.766358C11.1329 0.821853 11.1641 0.897119 11.1641 0.9756V2.15925C11.1641 2.23773 11.1329 2.313 11.0774 2.36849C11.0219 2.42399 10.9467 2.45516 10.8682 2.45516H4.94994C4.87146 2.45516 4.79619 2.42399 4.7407 2.36849C4.6852 2.313 4.65403 2.23773 4.65403 2.15925V0.9756C4.65403 0.897119 4.6852 0.821853 4.7407 0.766358C4.79619 0.710864 4.87146 0.679688 4.94994 0.679688H10.8682Z" fill="#0099FF"/>
</svg>
