<svg width="16" height="16" viewBox="0 0 16 16" fill="none" xmlns="http://www.w3.org/2000/svg">
<path d="M14.1979 8.20993C14.1979 8.0575 14.2584 7.91132 14.3662 7.80354C14.474 7.69575 14.6202 7.6352 14.7726 7.6352C14.925 7.6352 15.0712 7.69575 15.179 7.80354C15.2868 7.91132 15.3473 8.0575 15.3473 8.20993V12.9993C15.3473 14.1631 14.4038 15.1066 13.24 15.1066H2.89493C1.73111 15.1066 0.787598 14.1631 0.787598 12.9993V3.22897C0.787598 2.06515 1.73111 1.12164 2.89493 1.12164H7.87588C8.02831 1.12164 8.17449 1.1822 8.28228 1.28998C8.39006 1.39776 8.45061 1.54394 8.45061 1.69637C8.45061 1.8488 8.39006 1.99498 8.28228 2.10276C8.17449 2.21054 8.02831 2.2711 7.87588 2.2711H2.89493C2.64088 2.2711 2.39724 2.37201 2.2176 2.55165C2.03797 2.73129 1.93705 2.97493 1.93705 3.22897V12.9993C1.93705 13.2534 2.03797 13.497 2.2176 13.6766C2.39724 13.8563 2.64088 13.9572 2.89493 13.9572H13.24C13.494 13.9572 13.7377 13.8563 13.9173 13.6766C14.0969 13.497 14.1979 13.2534 14.1979 12.9993V8.20993ZM13.4425 3.22897L11.8298 1.51552C11.7253 1.40451 11.6693 1.25654 11.6739 1.10417C11.6785 0.951802 11.7435 0.807516 11.8545 0.703053C11.9655 0.59859 12.1135 0.542506 12.2659 0.547141C12.4182 0.551776 12.5625 0.616748 12.667 0.727766L15.1912 3.40982C15.5364 3.77649 15.2762 4.37842 14.7726 4.37842H11.8877C10.4208 4.37842 9.21691 5.65738 9.21691 7.25205V10.7004C9.21691 10.8528 9.15636 10.999 9.04858 11.1068C8.94079 11.2146 8.79461 11.2751 8.64218 11.2751C8.48976 11.2751 8.34357 11.2146 8.23579 11.1068C8.12801 10.999 8.06746 10.8528 8.06746 10.7004V7.25205C8.06746 5.03763 9.7698 3.22897 11.8877 3.22897H13.4425Z" fill="#0099FF"/>
</svg>
