<svg width="17" height="16" viewBox="0 0 17 16" fill="none" xmlns="http://www.w3.org/2000/svg">
<path d="M9.03978 14.4468C8.64108 14.5187 8.2302 14.556 7.81073 14.556C6.56409 14.5579 5.3405 14.2201 4.2714 13.5789C4.17609 13.5224 4.08055 13.4663 3.98477 13.4107L2.35662 13.8547C1.90919 13.9766 1.49871 13.5663 1.62075 13.1188L2.06419 11.4925C1.899 11.2114 1.78974 11.0215 1.73401 10.9174C1.19772 9.91722 0.917843 8.79963 0.91944 7.66473C0.91944 3.85874 4.00474 0.773438 7.81073 0.773438C11.2847 0.773438 14.1583 3.34399 14.6331 6.68676C15.3265 7.11672 15.8985 7.71661 16.2951 8.42958C16.6917 9.14255 16.8996 9.94497 16.8992 10.7608C16.8992 11.5606 16.7027 12.3334 16.3326 13.0238C16.299 13.0863 16.2391 13.1909 16.151 13.3414L16.4246 14.3443C16.5465 14.7917 16.1362 15.2022 15.6888 15.0802L14.6842 14.8061L14.5676 14.8748C13.8238 15.3209 12.9726 15.556 12.1053 15.5548C10.9852 15.5563 9.90008 15.1641 9.03978 14.4468ZM10.5353 13.9965C11.0245 14.234 11.5614 14.357 12.1053 14.3563C12.7555 14.3575 13.3936 14.1814 13.9512 13.8469C13.9925 13.8221 14.1064 13.7556 14.2979 13.644C14.3667 13.604 14.4427 13.5781 14.5215 13.5678C14.6003 13.5574 14.6804 13.5629 14.7572 13.5838L14.9925 13.648L14.9283 13.4127C14.9072 13.3352 14.9019 13.2543 14.9126 13.1748C14.9234 13.0953 14.95 13.0187 14.9909 12.9496C15.0885 12.787 15.1837 12.6228 15.2763 12.4573C15.556 11.9356 15.7018 11.3527 15.7008 10.7608C15.7016 9.82161 15.3343 8.91949 14.6777 8.24799C14.4609 10.8339 12.8166 13.0136 10.5353 13.9967V13.9965ZM3.28725 11.5636L3.05294 12.4225L3.91186 12.1882C3.98858 12.1673 4.06869 12.1619 4.14753 12.1722C4.22637 12.1826 4.30236 12.2085 4.37108 12.2485C4.65672 12.4149 4.8275 12.5148 4.88782 12.551C5.77069 13.0805 6.78122 13.3594 7.81073 13.3575C10.9548 13.3575 13.5035 10.8088 13.5035 7.66473C13.5035 4.5207 10.9548 1.97192 7.81073 1.97192C4.6667 1.97192 2.11793 4.5207 2.11793 7.66473C2.11793 8.61593 2.35103 9.53197 2.79028 10.3511C2.8484 10.4596 2.99502 10.7127 3.22473 11.1006C3.26562 11.1696 3.29223 11.2462 3.30297 11.3257C3.31371 11.4053 3.30836 11.4862 3.28725 11.5636ZM10.3076 5.56738C10.4665 5.56738 10.6189 5.63051 10.7313 5.74289C10.8437 5.85527 10.9068 6.00769 10.9068 6.16662C10.9068 6.32555 10.8437 6.47797 10.7313 6.59035C10.6189 6.70273 10.4665 6.76586 10.3076 6.76586H5.31389C5.15496 6.76586 5.00254 6.70273 4.89016 6.59035C4.77778 6.47797 4.71464 6.32555 4.71464 6.16662C4.71464 6.00769 4.77778 5.85527 4.89016 5.74289C5.00254 5.63051 5.15496 5.56738 5.31389 5.56738H10.3076ZM7.9106 8.56359C8.06953 8.56359 8.22195 8.62673 8.33433 8.73911C8.44671 8.85149 8.50985 9.0039 8.50985 9.16283C8.50985 9.32176 8.44671 9.47418 8.33433 9.58656C8.22195 9.69894 8.06953 9.76208 7.9106 9.76208H5.31389C5.15496 9.76208 5.00254 9.69894 4.89016 9.58656C4.77778 9.47418 4.71464 9.32176 4.71464 9.16283C4.71464 9.0039 4.77778 8.85149 4.89016 8.73911C5.00254 8.62673 5.15496 8.56359 5.31389 8.56359H7.9106Z" fill="#0099FF"/>
</svg>
