<svg width="16" height="15" viewBox="0 0 16 15" fill="none" xmlns="http://www.w3.org/2000/svg">
<path d="M4.52613 11.4261C4.62017 11.52 4.67826 11.6439 4.6903 11.7763C4.70233 11.9087 4.66754 12.0411 4.59198 12.1504L4.52613 12.2299L2.25552 14.5005C2.16145 14.5943 2.03744 14.6522 1.90508 14.6641C1.77272 14.6759 1.64041 14.6409 1.53119 14.5652L1.45286 14.4994L0.317551 13.364C0.216981 13.2639 0.15756 13.1298 0.150998 12.988C0.144437 12.8462 0.19121 12.7072 0.282101 12.5982C0.372992 12.4892 0.501408 12.4182 0.642041 12.3992C0.782674 12.3802 0.925323 12.4146 1.04188 12.4955L1.12135 12.5614L1.85476 13.2948L3.72347 11.4261C3.82992 11.3197 3.97428 11.2599 4.1248 11.2599C4.27532 11.2599 4.41968 11.3197 4.52613 11.4261ZM15.0992 12.3956C15.2411 12.3954 15.3779 12.4482 15.4827 12.5438C15.5876 12.6394 15.6528 12.7707 15.6656 12.912C15.6784 13.0533 15.6379 13.1942 15.552 13.3071C15.4661 13.42 15.341 13.4966 15.2014 13.5219L15.0992 13.5309H6.77404C6.63219 13.5312 6.49538 13.4783 6.39055 13.3828C6.28572 13.2872 6.22048 13.1558 6.20766 13.0146C6.19485 12.8733 6.23539 12.7323 6.3213 12.6195C6.40722 12.5066 6.53228 12.43 6.67186 12.4047L6.77404 12.3956H15.0992ZM4.52613 6.12874C4.61988 6.22259 4.6778 6.34632 4.68982 6.47843C4.70185 6.61054 4.66723 6.74268 4.59198 6.85193L4.52613 6.9314L2.25552 9.20201C2.16145 9.29587 2.03744 9.35376 1.90508 9.36558C1.77272 9.37741 1.64041 9.34242 1.53119 9.26672L1.45286 9.20201L0.317551 8.06671C0.216981 7.96658 0.15756 7.83242 0.150998 7.69067C0.144437 7.54891 0.19121 7.40983 0.282101 7.30085C0.372992 7.19186 0.501408 7.12088 0.642041 7.10188C0.782674 7.08288 0.925323 7.11724 1.04188 7.1982L1.12135 7.26291L1.85476 7.99745L3.72347 6.1276C3.82992 6.02118 3.97428 5.9614 4.1248 5.9614C4.27532 5.9614 4.41968 6.02118 4.52613 6.1276V6.12874ZM15.0992 7.09715C15.2411 7.09689 15.3779 7.14975 15.4827 7.24532C15.5876 7.34089 15.6528 7.47224 15.6656 7.61352C15.6784 7.75479 15.6379 7.89574 15.552 8.00861C15.4661 8.12149 15.341 8.19811 15.2014 8.22338L15.0992 8.23246H6.77404C6.63219 8.23272 6.49538 8.17986 6.39055 8.08429C6.28572 7.98872 6.22048 7.85737 6.20766 7.7161C6.19485 7.57483 6.23539 7.43388 6.3213 7.321C6.40722 7.20813 6.53228 7.13151 6.67186 7.10624L6.77404 7.09715H15.0992ZM4.52613 0.830264C4.62017 0.924189 4.67826 1.04813 4.6903 1.1805C4.70233 1.31286 4.66754 1.44525 4.59198 1.55459L4.52613 1.63293L2.25552 3.90354C2.16159 3.99757 2.03765 4.05567 1.90529 4.0677C1.77292 4.07973 1.64054 4.04494 1.53119 3.96939L1.45286 3.90354L0.317551 2.76823C0.216981 2.66811 0.15756 2.53395 0.150998 2.39219C0.144437 2.25043 0.19121 2.11136 0.282101 2.00237C0.372992 1.89339 0.501408 1.8224 0.642041 1.8034C0.782674 1.7844 0.925323 1.81877 1.04188 1.89972L1.12135 1.96557L1.85476 2.69898L3.72347 0.830264C3.82992 0.723845 3.97428 0.664062 4.1248 0.664062C4.27532 0.664062 4.41968 0.723845 4.52613 0.830264ZM15.0992 1.79868C15.2411 1.79842 15.3779 1.85128 15.4827 1.94685C15.5876 2.04242 15.6528 2.17377 15.6656 2.31504C15.6784 2.45631 15.6379 2.59727 15.552 2.71014C15.4661 2.82301 15.341 2.89963 15.2014 2.9249L15.0992 2.93399H6.77404C6.63219 2.93425 6.49538 2.88139 6.39055 2.78582C6.28572 2.69025 6.22048 2.5589 6.20766 2.41762C6.19485 2.27635 6.23539 2.1354 6.3213 2.02253C6.40722 1.90965 6.53228 1.83303 6.67186 1.80776L6.77404 1.79868H15.0992Z" fill="#0099FF"/>
</svg>
