<svg width="24" height="23" viewBox="0 0 24 23" fill="none" xmlns="http://www.w3.org/2000/svg">
<path d="M11.7722 18.572L11.7707 18.572C11.7637 18.572 11.7565 18.5721 11.7492 18.5722C11.7431 18.5722 11.7369 18.5723 11.7305 18.5724L11.7209 18.5725C11.7099 18.5726 11.6985 18.5727 11.687 18.5727C9.54072 18.5727 8.01707 17.6033 7.02388 16.6169C6.03227 15.6321 5.56502 14.6267 5.52498 14.5378C5.33961 14.127 5.52182 13.6447 5.93196 13.4591L5.93224 13.459C6.34282 13.2745 6.82354 13.4557 7.0099 13.8635L7.00993 13.8636C7.03616 13.9211 7.40015 14.6941 8.163 15.4512C8.92441 16.2068 10.078 16.9419 11.6898 16.9419C11.6994 16.9419 11.7092 16.9417 11.7201 16.9416L11.7205 16.9416L11.7722 18.572ZM11.7722 18.572C16.2412 18.5194 17.9935 14.7027 18.0683 14.5343C18.2522 14.1225 18.0666 13.6406 17.6557 13.4575C17.2421 13.2722 16.762 13.4593 16.5795 13.8695C16.5508 13.9319 15.1674 16.9009 11.7538 16.9412L11.7722 18.572ZM0.656307 11.5242C0.656307 17.6828 5.64829 22.6747 11.8069 22.6747C17.9651 22.6747 22.9571 17.6828 22.9571 11.5242C22.9571 5.36557 17.9651 0.373592 11.8069 0.373592C5.64829 0.373592 0.656307 5.36557 0.656307 11.5242ZM2.28714 11.5242C2.28714 6.27482 6.55754 2.00443 11.8069 2.00443C17.0559 2.00443 21.3263 6.27482 21.3263 11.5242C21.3263 16.7732 17.0559 21.0439 11.8069 21.0439C6.55754 21.0439 2.28714 16.7732 2.28714 11.5242ZM13.7399 9.45679C13.7399 10.2855 14.4114 10.9581 15.2409 10.9581C16.0701 10.9581 16.7419 10.2855 16.7419 9.45679C16.7419 8.6287 16.07 7.9565 15.2409 7.9565C14.4115 7.9565 13.7399 8.62873 13.7399 9.45679ZM6.84982 9.45679C6.84982 10.2855 7.52128 10.9581 8.35081 10.9581C9.17997 10.9581 9.85179 10.2855 9.85179 9.45679C9.85179 8.6287 9.17989 7.9565 8.35081 7.9565C7.52136 7.9565 6.84982 8.62873 6.84982 9.45679Z" fill="#A1AABF" stroke="#A1AABF" stroke-width="0.252815"/>
</svg>
