<svg width="20" height="17" viewBox="0 0 20 17" fill="none" xmlns="http://www.w3.org/2000/svg">
<path d="M19.4005 9.05745V13.7189C19.4005 15.1299 18.2566 16.2737 16.8457 16.2737H3.37467C1.9637 16.2737 0.819824 15.1299 0.819824 13.7189V2.57047C0.819824 1.1595 1.9637 0.015625 3.37467 0.015625H16.8457C18.2566 0.015625 19.4005 1.1595 19.4005 2.57047V9.05745ZM18.007 7.43257V2.57047C18.007 2.41797 17.9769 2.26696 17.9186 2.12606C17.8602 1.98517 17.7747 1.85715 17.6668 1.74931C17.559 1.64148 17.431 1.55594 17.2901 1.49757C17.1492 1.43921 16.9982 1.40918 16.8457 1.40918H3.37467C3.22217 1.40918 3.07116 1.43921 2.93026 1.49757C2.78937 1.55594 2.66135 1.64148 2.55351 1.74931C2.44567 1.85715 2.36013 1.98517 2.30177 2.12606C2.24341 2.26696 2.21338 2.41797 2.21338 2.57047V10.0713C2.52095 10.0256 2.83147 10.0027 3.14241 10.0027C4.59927 10.0006 6.01106 10.5078 7.13354 11.4365C8.26 8.50142 11.088 6.51887 14.2908 6.51887C15.7215 6.51887 17.0561 6.88421 18.007 7.43257ZM18.007 9.22328C17.8908 9.04212 17.5469 8.7518 17.0566 8.50653C16.3108 8.13353 15.3587 7.91242 14.2908 7.91242C11.6394 7.91242 9.30168 9.57307 8.40237 12.0211C8.34291 12.1832 8.24118 12.4635 8.09765 12.8611C7.93042 13.325 7.34745 13.4732 6.97909 13.1454C6.62118 12.8268 6.35733 12.5996 6.1922 12.4672C5.32784 11.7723 4.25151 11.3943 3.14241 11.3963C2.82747 11.3963 2.51694 11.426 2.21338 11.4846V13.7189C2.21338 13.8714 2.24341 14.0224 2.30177 14.1633C2.36013 14.3042 2.44567 14.4322 2.55351 14.54C2.66135 14.6479 2.78937 14.7334 2.93026 14.7918C3.07116 14.8501 3.22217 14.8802 3.37467 14.8802H16.8457C16.9982 14.8802 17.1492 14.8501 17.2901 14.7918C17.431 14.7334 17.559 14.6479 17.6668 14.54C17.7747 14.4322 17.8602 14.3042 17.9186 14.1633C17.9769 14.0224 18.007 13.8714 18.007 13.7189V9.22305V9.22328ZM5.92951 7.4479C5.37512 7.4479 4.84344 7.22767 4.45143 6.83566C4.05942 6.44365 3.83919 5.91196 3.83919 5.35757C3.83919 4.80318 4.05942 4.2715 4.45143 3.87949C4.84344 3.48748 5.37512 3.26725 5.92951 3.26725C6.4839 3.26725 7.01559 3.48748 7.4076 3.87949C7.79961 4.2715 8.01984 4.80318 8.01984 5.35757C8.01984 5.91196 7.79961 6.44365 7.4076 6.83566C7.01559 7.22767 6.4839 7.4479 5.92951 7.4479ZM5.92951 6.05435C6.11431 6.05435 6.29154 5.98094 6.42221 5.85027C6.55288 5.7196 6.62629 5.54237 6.62629 5.35757C6.62629 5.17278 6.55288 4.99555 6.42221 4.86488C6.29154 4.73421 6.11431 4.6608 5.92951 4.6608C5.74472 4.6608 5.56749 4.73421 5.43682 4.86488C5.30615 4.99555 5.23274 5.17278 5.23274 5.35757C5.23274 5.54237 5.30615 5.7196 5.43682 5.85027C5.56749 5.98094 5.74472 6.05435 5.92951 6.05435Z" fill="#0099FF"/>
</svg>
