<svg width="18" height="18" viewBox="0 0 18 18" fill="none" xmlns="http://www.w3.org/2000/svg">
<mask id="path-1-outside-1_1937_1313" maskUnits="userSpaceOnUse" x="0.186523" y="-0.304688" width="18" height="18" fill="black">
<rect fill="white" x="0.186523" y="-0.304688" width="18" height="18"/>
<path fill-rule="evenodd" clip-rule="evenodd" d="M3.68844 17.0255H15.0148C16.3949 17.0255 17.5167 15.9037 17.5186 14.5236V6.51567C17.5186 5.35744 16.7317 4.38051 15.6655 4.08943V3.9737C15.6655 2.6008 14.5492 1.48262 13.1744 1.48262H7.52066C7.05379 0.989539 6.39605 0.695312 5.69721 0.695312H3.68844C2.30832 0.695312 1.18652 1.81711 1.18652 3.19723V14.5236C1.18652 15.9037 2.30832 17.0255 3.68844 17.0255ZM8.30068 2.85551H13.1744C13.7904 2.85551 14.2926 3.3559 14.2926 3.9737V4.0011H9.55576C9.1168 4.0011 8.71216 3.74278 8.5279 3.34536L8.30068 2.85551ZM2.55942 3.19723C2.55942 2.57401 3.06522 2.06821 3.68844 2.06821H5.69721C6.13617 2.06821 6.54081 2.32653 6.72688 2.72395L7.28326 3.92342C7.69332 4.80497 8.5839 5.37399 9.55576 5.37399H15.0022C15.6326 5.37399 16.1439 5.88702 16.1439 6.51567V14.5236C16.1439 15.1468 15.638 15.6526 15.0148 15.6526H3.68844C3.06522 15.6526 2.55942 15.1468 2.55942 14.5236V3.19723ZM4.91902 14.321H8.68183C9.06118 14.321 9.36828 14.0139 9.36828 13.6345C9.36828 13.2552 9.06118 12.9481 8.68183 12.9481H4.91902C4.53966 12.9481 4.23257 13.2552 4.23257 13.6345C4.23257 14.0139 4.53966 14.321 4.91902 14.321Z"/>
</mask>
<path fill-rule="evenodd" clip-rule="evenodd" d="M3.68844 17.0255H15.0148C16.3949 17.0255 17.5167 15.9037 17.5186 14.5236V6.51567C17.5186 5.35744 16.7317 4.38051 15.6655 4.08943V3.9737C15.6655 2.6008 14.5492 1.48262 13.1744 1.48262H7.52066C7.05379 0.989539 6.39605 0.695312 5.69721 0.695312H3.68844C2.30832 0.695312 1.18652 1.81711 1.18652 3.19723V14.5236C1.18652 15.9037 2.30832 17.0255 3.68844 17.0255ZM8.30068 2.85551H13.1744C13.7904 2.85551 14.2926 3.3559 14.2926 3.9737V4.0011H9.55576C9.1168 4.0011 8.71216 3.74278 8.5279 3.34536L8.30068 2.85551ZM2.55942 3.19723C2.55942 2.57401 3.06522 2.06821 3.68844 2.06821H5.69721C6.13617 2.06821 6.54081 2.32653 6.72688 2.72395L7.28326 3.92342C7.69332 4.80497 8.5839 5.37399 9.55576 5.37399H15.0022C15.6326 5.37399 16.1439 5.88702 16.1439 6.51567V14.5236C16.1439 15.1468 15.638 15.6526 15.0148 15.6526H3.68844C3.06522 15.6526 2.55942 15.1468 2.55942 14.5236V3.19723ZM4.91902 14.321H8.68183C9.06118 14.321 9.36828 14.0139 9.36828 13.6345C9.36828 13.2552 9.06118 12.9481 8.68183 12.9481H4.91902C4.53966 12.9481 4.23257 13.2552 4.23257 13.6345C4.23257 14.0139 4.53966 14.321 4.91902 14.321Z" fill="#0099FF"/>
<path d="M17.5186 14.5236L17.7325 14.5239V14.5236H17.5186ZM15.6655 4.08943H15.4516V4.25277L15.6092 4.29579L15.6655 4.08943ZM7.52066 1.48262L7.36532 1.6297L7.42861 1.69654H7.52066V1.48262ZM8.30068 2.85551V2.64159H7.96563L8.10662 2.94553L8.30068 2.85551ZM14.2926 4.0011V4.21502H14.5066V4.0011H14.2926ZM8.5279 3.34536L8.72198 3.25538L8.72196 3.25534L8.5279 3.34536ZM6.72688 2.72395L6.92094 2.63393L6.92062 2.63324L6.72688 2.72395ZM7.28326 3.92342L7.0892 4.01344L7.0893 4.01365L7.28326 3.92342ZM15.0148 16.8116H3.68844V17.2395H15.0148V16.8116ZM17.3046 14.5233C17.303 15.7856 16.2767 16.8116 15.0148 16.8116V17.2395C16.5131 17.2395 17.7305 16.0219 17.7325 14.5239L17.3046 14.5233ZM17.3046 6.51567V14.5236H17.7325V6.51567H17.3046ZM15.6092 4.29579C16.5849 4.5622 17.3046 5.45661 17.3046 6.51567H17.7325C17.7325 5.25827 16.8784 4.19882 15.7219 3.88306L15.6092 4.29579ZM15.4516 3.9737V4.08943H15.8795V3.9737H15.4516ZM13.1744 1.69654C14.4309 1.69654 15.4516 2.71885 15.4516 3.9737H15.8795C15.8795 2.48276 14.6674 1.2687 13.1744 1.2687V1.69654ZM7.52066 1.69654H13.1744V1.2687H7.52066V1.69654ZM5.69721 0.909235C6.33583 0.909235 6.93785 1.17822 7.36532 1.6297L7.676 1.33554C7.16974 0.800857 6.45627 0.48139 5.69721 0.48139V0.909235ZM3.68844 0.909235H5.69721V0.48139H3.68844V0.909235ZM1.40045 3.19723C1.40045 1.93526 2.42647 0.909235 3.68844 0.909235V0.48139C2.19018 0.48139 0.972601 1.69897 0.972601 3.19723H1.40045ZM1.40045 14.5236V3.19723H0.972601V14.5236H1.40045ZM3.68844 16.8116C2.42647 16.8116 1.40045 15.7856 1.40045 14.5236H0.972601C0.972601 16.0219 2.19018 17.2395 3.68844 17.2395V16.8116ZM13.1744 2.64159H8.30068V3.06943H13.1744V2.64159ZM14.5066 3.9737C14.5066 3.23753 13.9084 2.64159 13.1744 2.64159V3.06943C13.6725 3.06943 14.0787 3.47427 14.0787 3.9737H14.5066ZM14.5066 4.0011V3.9737H14.0787V4.0011H14.5066ZM9.55576 4.21502H14.2926V3.78718H9.55576V4.21502ZM8.33382 3.43534C8.55317 3.90845 9.03362 4.21502 9.55576 4.21502V3.78718C9.19998 3.78718 8.87114 3.5771 8.72198 3.25538L8.33382 3.43534ZM8.10662 2.94553L8.33384 3.43538L8.72196 3.25534L8.49474 2.7655L8.10662 2.94553ZM3.68844 1.85429C2.94708 1.85429 2.3455 2.45586 2.3455 3.19723H2.77334C2.77334 2.69216 3.18337 2.28213 3.68844 2.28213V1.85429ZM5.69721 1.85429H3.68844V2.28213H5.69721V1.85429ZM6.92062 2.63324C6.69949 2.16092 6.2195 1.85429 5.69721 1.85429V2.28213C6.05284 2.28213 6.38214 2.49214 6.53314 2.81465L6.92062 2.63324ZM7.47732 3.83341L6.92094 2.63393L6.53282 2.81396L7.0892 4.01344L7.47732 3.83341ZM9.55576 5.16007C8.66729 5.16007 7.85227 4.63946 7.47723 3.8332L7.0893 4.01365C7.53438 4.97047 8.50051 5.58792 9.55576 5.58792V5.16007ZM15.0022 5.16007H9.55576V5.58792H15.0022V5.16007ZM16.3578 6.51567C16.3578 5.7691 15.751 5.16007 15.0022 5.16007V5.58792C15.5143 5.58792 15.9299 6.00495 15.9299 6.51567H16.3578ZM16.3578 14.5236V6.51567H15.9299V14.5236H16.3578ZM15.0148 15.8666C15.7562 15.8666 16.3578 15.265 16.3578 14.5236H15.9299C15.9299 15.0287 15.5199 15.4387 15.0148 15.4387V15.8666ZM3.68844 15.8666H15.0148V15.4387H3.68844V15.8666ZM2.3455 14.5236C2.3455 15.265 2.94708 15.8666 3.68844 15.8666V15.4387C3.18337 15.4387 2.77334 15.0287 2.77334 14.5236H2.3455ZM2.3455 3.19723V14.5236H2.77334V3.19723H2.3455ZM8.68183 14.1071H4.91902V14.5349H8.68183V14.1071ZM9.15436 13.6345C9.15436 13.8958 8.94304 14.1071 8.68183 14.1071V14.5349C9.17933 14.5349 9.5822 14.132 9.5822 13.6345H9.15436ZM8.68183 13.162C8.94304 13.162 9.15436 13.3733 9.15436 13.6345H9.5822C9.5822 13.137 9.17933 12.7342 8.68183 12.7342V13.162ZM4.91902 13.162H8.68183V12.7342H4.91902V13.162ZM4.44649 13.6345C4.44649 13.3733 4.65781 13.162 4.91902 13.162V12.7342C4.42152 12.7342 4.01865 13.137 4.01865 13.6345H4.44649ZM4.91902 14.1071C4.65781 14.1071 4.44649 13.8958 4.44649 13.6345H4.01865C4.01865 14.132 4.42152 14.5349 4.91902 14.5349V14.1071Z" fill="#0099FF" mask="url(#path-1-outside-1_1937_1313)"/>
</svg>
