<svg width="24" height="23" viewBox="0 0 24 23" fill="none" xmlns="http://www.w3.org/2000/svg">
<path fill-rule="evenodd" clip-rule="evenodd" d="M11.9775 22.1738C11.1802 22.1738 10.5365 21.5302 10.5365 20.7328V12.567H2.37071C1.57334 12.567 0.929688 11.9233 0.929688 11.126C0.929688 10.3286 1.57334 9.68495 2.37071 9.68495H10.5365V1.51915C10.5365 0.721782 11.1802 0.078125 11.9775 0.078125C12.7749 0.078125 13.4186 0.721782 13.4186 1.51915V9.68495H21.5844C22.3817 9.68495 23.0254 10.3286 23.0254 11.126C23.0254 11.9233 22.3817 12.567 21.5844 12.567H13.4186V20.7328C13.4186 21.5302 12.7749 22.1738 11.9775 22.1738Z" fill="#0099FF"/>
</svg>
