<svg width="20" height="18" viewBox="0 0 20 18" fill="none" xmlns="http://www.w3.org/2000/svg">
<path d="M4.82861 3.36523L5.33586 1.72386C5.43843 1.392 5.64458 1.10171 5.92411 0.895534C6.20364 0.689354 6.54186 0.578118 6.88921 0.578125H13.3311C13.6785 0.578118 14.0167 0.689354 14.2962 0.895534C14.5758 1.10171 14.7819 1.392 14.8845 1.72386L15.3917 3.36523H16.8457C18.2566 3.36523 19.4005 4.5091 19.4005 5.92007V15.2104C19.4005 16.6214 18.2566 17.7653 16.8457 17.7653H3.37467C1.9637 17.7653 0.819824 16.6214 0.819824 15.2104V5.92007C0.819824 4.5091 1.9637 3.36523 3.37467 3.36523H4.82861ZM5.3426 4.75878H3.37467C3.22217 4.75878 3.07116 4.78882 2.93026 4.84718C2.78937 4.90554 2.66135 4.99108 2.55351 5.09891C2.44567 5.20675 2.36013 5.33477 2.30177 5.47566C2.24341 5.61656 2.21338 5.76757 2.21338 5.92007V15.2104C2.21338 15.3629 2.24341 15.5139 2.30177 15.6548C2.36013 15.7957 2.44567 15.9237 2.55351 16.0316C2.66135 16.1394 2.78937 16.2249 2.93026 16.2833C3.07116 16.3417 3.22217 16.3717 3.37467 16.3717H16.8457C16.9982 16.3717 17.1492 16.3417 17.2901 16.2833C17.431 16.2249 17.559 16.1394 17.6668 16.0316C17.7747 15.9237 17.8602 15.7957 17.9186 15.6548C17.9769 15.5139 18.007 15.3629 18.007 15.2104V5.92007C18.007 5.76757 17.9769 5.61656 17.9186 5.47566C17.8602 5.33477 17.7747 5.20675 17.6668 5.09891C17.559 4.99108 17.431 4.90554 17.2901 4.84718C17.1492 4.78882 16.9982 4.75878 16.8457 4.75878H14.8777C14.7289 4.75877 14.584 4.7111 14.4642 4.62274C14.3444 4.53438 14.256 4.40999 14.2121 4.26778L13.5529 2.13542C13.5383 2.08801 13.5089 2.04654 13.469 2.01708C13.429 1.98761 13.3807 1.9717 13.3311 1.97168H6.88921C6.83959 1.9717 6.79129 1.98761 6.75138 2.01708C6.71146 2.04654 6.68203 2.08801 6.6674 2.13542L6.00825 4.26755C5.96433 4.4098 5.876 4.53425 5.75622 4.62265C5.63643 4.71105 5.49147 4.75876 5.3426 4.75878ZM10.1102 13.5846C8.18614 13.5846 6.62629 12.0248 6.62629 10.1007C6.62629 8.1767 8.18614 6.61685 10.1102 6.61685C12.0342 6.61685 13.594 8.1767 13.594 10.1007C13.594 12.0248 12.0342 13.5846 10.1102 13.5846ZM10.1102 12.1911C10.6646 12.1911 11.1962 11.9708 11.5883 11.5788C11.9803 11.1868 12.2005 10.6551 12.2005 10.1007C12.2005 9.54634 11.9803 9.01465 11.5883 8.62264C11.1962 8.23063 10.6646 8.0104 10.1102 8.0104C9.55578 8.0104 9.0241 8.23063 8.63208 8.62264C8.24007 9.01465 8.01984 9.54634 8.01984 10.1007C8.01984 10.6551 8.24007 11.1868 8.63208 11.5788C9.0241 11.9708 9.55578 12.1911 10.1102 12.1911Z" fill="#0099FF"/>
</svg>
