<svg width="25" height="25" viewBox="0 0 25 25" fill="none" xmlns="http://www.w3.org/2000/svg">
<path d="M12.37 0.335938C15.6007 0.335938 18.6992 1.61934 20.9836 3.90382C23.2681 6.1883 24.5515 9.28672 24.5515 12.5175C24.5515 12.7611 24.4703 12.9979 24.3228 13.1915L24.228 13.3011L13.1537 24.3755C13.0507 24.4782 12.9285 24.5597 12.794 24.6152C12.6596 24.6707 12.5155 24.6992 12.37 24.699C9.13926 24.699 6.04084 23.4156 3.75636 21.1311C1.47188 18.8466 0.188477 15.7482 0.188477 12.5175C0.188477 9.28672 1.47188 6.1883 3.75636 3.90382C6.04084 1.61934 9.13926 0.335938 12.37 0.335938ZM12.37 2.55027C9.92393 2.54833 7.56256 3.44592 5.73541 5.07218C3.90826 6.69844 2.74291 8.93981 2.46121 11.3696C2.17951 13.7994 2.80114 16.2479 4.20775 18.2491C5.61435 20.2503 7.70772 21.6643 10.0893 22.2221C9.19457 20.5463 8.86218 18.6273 9.14122 16.7483C9.42026 14.8692 10.2959 13.1296 11.6391 11.7862C12.9822 10.4428 14.7216 9.56667 16.6006 9.28721C18.4796 9.00774 20.3987 9.3397 22.0746 10.2341C21.5592 8.0473 20.3204 6.09865 18.559 4.704C16.7975 3.30934 14.6167 2.55043 12.37 2.55027ZM17.9058 11.4103C16.6862 11.4104 15.4902 11.7462 14.4488 12.3809C13.4074 13.0156 12.5607 13.9246 12.0016 15.0085C11.4425 16.0924 11.1925 17.3092 11.2789 18.5257C11.3654 19.7422 11.785 20.9115 12.4918 21.9053L21.7565 12.6379C20.633 11.837 19.287 11.4077 17.9072 11.4103H17.9058Z" fill="#0099FF"/>
</svg>
