<svg width="41" height="41" viewBox="0 0 41 41" fill="none" xmlns="http://www.w3.org/2000/svg">
<circle cx="20.3906" cy="20.3828" r="20" fill="#0099FF"/>
<path opacity="0.9" d="M17.1553 23.8456C17.1553 24.1409 17.027 24.3819 16.7705 24.5684C16.514 24.755 16.1915 24.9337 15.8029 25.1047C15.4143 25.2757 14.9945 25.47 14.5437 25.6876C14.0929 25.9053 13.681 26.2006 13.3079 26.5737H12.8649C12.2276 26.5737 11.6718 26.5076 11.1977 26.3755C10.7236 26.2434 10.3233 26.0685 9.9969 25.8509C9.67046 25.6332 9.42563 25.3884 9.26241 25.1164C9.09919 24.8443 9.01758 24.5684 9.01758 24.2886C9.01758 23.9622 9.18857 23.6979 9.53056 23.4958C9.87254 23.2937 10.2495 23.1072 10.6614 22.9362C11.0734 22.7652 11.4503 22.5865 11.7923 22.3999C12.1343 22.2134 12.3053 21.9724 12.3053 21.6771C12.3053 21.3817 12.212 21.1097 12.0255 20.861C11.839 20.6123 11.633 20.3286 11.4076 20.0099C11.1822 19.6912 10.9762 19.3182 10.7897 18.8907C10.6031 18.4632 10.5099 17.9153 10.5099 17.2468C10.5099 16.7649 10.5604 16.2986 10.6614 15.8478C10.7625 15.397 10.914 15.0006 11.1161 14.6586C11.3182 14.3166 11.5747 14.0446 11.8856 13.8425C12.1965 13.6404 12.5618 13.5394 12.9815 13.5394C13.5411 13.5394 14.0075 13.6327 14.3805 13.8192C14.2873 14.3788 14.2406 14.9618 14.2406 15.568C14.2406 16.5473 14.3222 17.379 14.4855 18.0629C14.6487 18.7469 14.8546 19.3376 15.1034 19.835C14.8702 20.1459 14.6526 20.4374 14.4505 20.7094C14.2484 20.9815 14.1474 21.304 14.1474 21.6771C14.1474 21.8792 14.2562 22.0541 14.4738 22.2017C14.6914 22.3494 14.9518 22.4893 15.2549 22.6214C15.558 22.7536 15.8806 22.8896 16.2226 23.0295C16.5646 23.1694 16.8677 23.3171 17.1319 23.4725C17.1475 23.5502 17.1553 23.6746 17.1553 23.8456ZM28.7206 21.6771C28.7206 21.8481 28.81 22.0035 28.9887 22.1434C29.1675 22.2833 29.389 22.4155 29.6533 22.5398C29.9175 22.6642 30.209 22.7847 30.5277 22.9012C30.8463 23.0178 31.1378 23.1422 31.4021 23.2743C31.6663 23.4064 31.8878 23.5541 32.0666 23.7173C32.2454 23.8806 32.3347 24.071 32.3347 24.2886C32.3347 24.6306 32.2182 24.9337 31.985 25.198C31.7518 25.4622 31.4409 25.6838 31.0523 25.8625C30.6637 26.0413 30.2168 26.1773 29.7116 26.2706C29.2063 26.3638 28.6895 26.4182 28.161 26.4338C27.7257 26.1384 27.2594 25.9092 26.7619 25.7459C26.2645 25.5827 25.7943 25.435 25.3512 25.3029C24.9082 25.1708 24.5274 25.0231 24.2087 24.8599C23.89 24.6967 23.6996 24.4596 23.6374 24.1487C23.6996 23.8534 23.9017 23.6124 24.2437 23.4259C24.5857 23.2393 24.9549 23.0645 25.3512 22.9012C25.7476 22.738 26.1052 22.5631 26.4238 22.3766C26.7425 22.1901 26.9018 21.9569 26.9018 21.6771C26.9018 21.3507 26.7775 21.0514 26.5288 20.7794C26.28 20.5073 26.0236 20.1926 25.7593 19.835C26.008 19.291 26.214 18.6459 26.3772 17.8997C26.5404 17.1536 26.622 16.2753 26.622 15.2649C26.622 15.0472 26.6104 14.8296 26.5871 14.612C26.5637 14.3944 26.5365 14.1767 26.5054 13.9591C26.9096 13.6793 27.2749 13.5394 27.6014 13.5394C28.332 13.5394 28.9149 13.6599 29.3501 13.9008C29.7854 14.1418 30.1157 14.441 30.3411 14.7985C30.5665 15.1561 30.7142 15.5408 30.7841 15.9527C30.8541 16.3647 30.8891 16.7416 30.8891 17.0836C30.8891 17.7831 30.7764 18.3466 30.551 18.7741C30.3256 19.2016 30.0769 19.5708 29.8048 19.8817C29.5328 20.1926 29.2841 20.4801 29.0587 20.7444C28.8333 21.0087 28.7206 21.3196 28.7206 21.6771ZM22.1685 24.1487C22.1685 24.4751 22.3122 24.7627 22.5998 25.0114C22.8874 25.2602 23.2488 25.4972 23.6841 25.7226C24.1193 25.948 24.5934 26.1618 25.1064 26.3638C25.6194 26.5659 26.0935 26.7874 26.5288 27.0284C26.964 27.2693 27.3254 27.5336 27.613 27.8212C27.9006 28.1087 28.0444 28.4468 28.0444 28.8355C28.0444 29.0997 27.8268 29.3523 27.3915 29.5933C26.9562 29.8342 26.3811 30.0557 25.666 30.2578C24.951 30.4599 24.1271 30.6192 23.1944 30.7358C22.2617 30.8524 21.3057 30.9107 20.3264 30.9107C19.2072 30.9107 18.2162 30.8524 17.3535 30.7358C16.4907 30.6192 15.7679 30.4638 15.185 30.2695C14.602 30.0752 14.159 29.8536 13.8559 29.6049C13.5528 29.3562 13.4012 29.1075 13.4012 28.8588C13.4012 28.4702 13.545 28.1321 13.8326 27.8445C14.1201 27.5569 14.4816 27.2965 14.9168 27.0634C15.3521 26.8302 15.8223 26.6164 16.3275 26.4221C16.8327 26.2278 17.3029 26.0219 17.7382 25.8042C18.1734 25.5866 18.5349 25.3495 18.8224 25.0931C19.11 24.8366 19.2538 24.5296 19.2538 24.172C19.2538 23.8145 19.18 23.4803 19.0323 23.1694C18.8846 22.8585 18.6981 22.5437 18.4727 22.225C18.2473 21.9064 18.0025 21.5605 17.7382 21.1874C17.4739 20.8144 17.2291 20.3946 17.0037 19.9283C16.7783 19.462 16.5918 18.9257 16.4441 18.3194C16.2964 17.7132 16.2226 17.0137 16.2226 16.2209C16.2226 14.4954 16.5451 13.1236 17.1902 12.1054C17.8354 11.0872 18.8341 10.5781 20.1865 10.5781C21.3213 10.5781 22.2151 10.7491 22.868 11.0911C23.5209 11.4331 24.0144 11.8722 24.3486 12.4085C24.6828 12.9448 24.8927 13.5355 24.9782 14.1806C25.0637 14.8257 25.1064 15.4592 25.1064 16.081C25.1064 16.9204 25.0326 17.6432 24.8849 18.2495C24.7372 18.8557 24.5546 19.3842 24.337 19.835C24.1193 20.2858 23.8862 20.6861 23.6374 21.0359C23.3887 21.3856 23.1555 21.7198 22.9379 22.0385C22.7203 22.3572 22.5376 22.6836 22.39 23.0178C22.2423 23.352 22.1685 23.729 22.1685 24.1487Z" fill="white"/>
</svg>
