<svg width="13" height="12" viewBox="0 0 13 12" fill="none" xmlns="http://www.w3.org/2000/svg">
<path d="M11.3644 9.20443L8.83787 8.22025C8.83787 8.22025 8.3554 8.03316 8.16893 7.8501C8.04885 7.73095 8.05723 7.45326 8.16365 7.09645C8.27008 6.73995 9.56483 5.29161 9.56483 3.97575C9.56483 1.94441 8.22819 0.296875 6.58096 0.296875C4.93343 0.296875 3.59833 1.94441 3.59833 3.97575C3.59833 5.23638 4.75254 6.73871 4.89464 7.01082C5.03706 7.28447 5.00262 7.70086 4.89061 7.82621C4.72182 8.01578 4.10408 8.20505 4.10408 8.20505L1.82638 9.21963C1.29427 9.41014 0.876953 9.91184 0.876953 10.479V10.7471C0.876953 11.3648 1.37866 11.7434 1.99517 11.7434H11.1931C11.8096 11.7434 12.3123 11.3648 12.3123 10.7471V10.479C12.3138 9.91153 11.8965 9.39462 11.3644 9.20443Z" fill="#BCBCBC"/>
</svg>
