<svg width="18" height="16" viewBox="0 0 18 16" fill="none" xmlns="http://www.w3.org/2000/svg">
<path fill-rule="evenodd" clip-rule="evenodd" d="M0.390625 1.4824C0.390625 0.702524 1.02284 0.0703125 1.80271 0.0703125H16.3604C17.1402 0.0703125 17.7725 0.702524 17.7725 1.4824C17.7725 2.26227 17.1402 2.89448 16.3604 2.89448H1.80271C1.02284 2.89448 0.390625 2.26227 0.390625 1.4824ZM0.390625 8.01365C0.390625 7.23377 1.02284 6.60156 1.80271 6.60156H16.3604C17.1402 6.60156 17.7725 7.23377 17.7725 8.01365C17.7725 8.79352 17.1402 9.42573 16.3604 9.42573H1.80271C1.02284 9.42573 0.390625 8.79352 0.390625 8.01365ZM1.80271 13.1328C1.02284 13.1328 0.390625 13.765 0.390625 14.5449C0.390625 15.3248 1.02284 15.957 1.80271 15.957H16.3604C17.1402 15.957 17.7725 15.3248 17.7725 14.5449C17.7725 13.765 17.1402 13.1328 16.3604 13.1328H1.80271Z" fill="#A1C9F9"/>
</svg>
