<svg width="14" height="14" viewBox="0 0 14 14" fill="none" xmlns="http://www.w3.org/2000/svg">
<path d="M8.10098 6.86523L13.4753 1.48873C13.7465 1.21733 13.7465 0.769902 13.4753 0.498509L13.4459 0.469169C13.1746 0.197777 12.7274 0.197777 12.4561 0.469169L7.08185 5.85301L1.70758 0.469169C1.4363 0.197777 0.989058 0.197777 0.717778 0.469169L0.688451 0.498509C0.409839 0.769902 0.409839 1.21733 0.688451 1.48873L6.06272 6.86523L0.688451 12.2417C0.417171 12.5131 0.417171 12.9606 0.688451 13.232L0.717778 13.2613C0.989058 13.5327 1.4363 13.5327 1.70758 13.2613L7.08185 7.88479L12.4561 13.2613C12.7274 13.5327 13.1746 13.5327 13.4459 13.2613L13.4753 13.232C13.7465 12.9606 13.7465 12.5131 13.4753 12.2417L8.10098 6.86523Z" fill="#7F8AA8"/>
</svg>
