<svg width="13" height="14" viewBox="0 0 13 14" fill="none" xmlns="http://www.w3.org/2000/svg">
<path d="M12.6432 11.6808L10.7428 9.67826V6.68298C10.7428 4.57336 9.32151 2.81393 7.43236 2.41105V1.91297C7.43236 1.51688 7.12745 1.19389 6.75156 1.19389C6.37566 1.19389 6.06914 1.51518 6.06914 1.91127V2.36345C5.47707 2.44675 4.90919 2.66264 4.40424 2.99922L2.12306 0.595519L2.11177 0.583619C1.81654 0.287831 1.35191 0.296331 1.06636 0.602318C0.780812 0.908306 0.784039 1.39959 1.0712 1.70387L3.30559 4.05828L3.29914 4.06508L10.7977 11.9664H10.809L11.5898 12.7891C11.8818 13.0883 12.3464 13.0849 12.6352 12.7806C12.924 12.478 12.9272 11.9885 12.6432 11.6808ZM2.4683 6.68468V10.1729C2.4683 10.2953 2.47798 10.4126 2.48605 10.5316H2.46669C2.09079 10.5316 1.78427 10.8529 1.78427 11.249C1.78427 11.6451 2.08918 11.9681 2.46507 11.9681H8.69394L2.61027 5.55592C2.5167 5.92311 2.4683 6.30219 2.4683 6.68468ZM6.99516 13.9672C7.62757 13.9655 8.1535 13.4521 8.20189 12.7874H5.78843C5.83683 13.4521 6.36276 13.9655 6.99516 13.9672Z" fill="#BDC8E4"/>
</svg>
