<svg width="15" height="16" viewBox="0 0 15 16" fill="none" xmlns="http://www.w3.org/2000/svg">
<path d="M14.1348 13.8402L11.4533 11.0963C12.2318 10.0307 12.6957 8.71327 12.6957 7.27841C12.6957 3.74581 9.89613 0.882812 6.44422 0.882812C2.99396 0.884491 0.196045 3.74749 0.196045 7.28009C0.196045 10.8127 2.99396 13.6757 6.44586 13.6757C8.01282 13.6757 9.44046 13.0816 10.537 12.1083L13.1808 14.8152C13.312 14.9494 13.4841 15.0182 13.6578 15.0182C13.8316 15.0182 14.002 14.9494 14.1348 14.8152C14.397 14.545 14.397 14.1087 14.1348 13.8402ZM6.44586 12.2979C3.74138 12.2979 1.54009 10.0474 1.54009 7.27841C1.54009 4.50939 3.74138 2.26061 6.44586 2.26061C9.15034 2.26061 11.3516 4.51275 11.3516 7.28009C11.3516 10.0474 9.15034 12.2979 6.44586 12.2979Z" fill="#CFCFCF"/>
</svg>
