<svg width="59" height="59" viewBox="0 0 59 59" fill="none" xmlns="http://www.w3.org/2000/svg">
<circle cx="29.0381" cy="29.9297" r="29" fill="#FF8A00"/>
<path fill-rule="evenodd" clip-rule="evenodd" d="M30.4403 31.5336H18.2988C16.4326 31.5336 14.833 29.934 14.833 28.0678V21.4029C14.833 19.5367 16.4326 17.9371 18.2988 17.9371H29.9813L36.4274 14.2052C37.7603 13.4054 39.3599 14.4718 39.3599 15.8048V33.4002C39.3599 34.9998 37.7603 35.7996 36.4274 34.9998L30.4403 31.5336ZM40.5774 28.6015C43.2434 28.6015 43.2434 26.7353 43.2434 25.4023C43.2434 24.0693 43.2434 22.2031 40.5774 22.2031V28.6015ZM23.6307 45.9326H27.0965C28.1628 45.9326 28.9626 45.1328 28.9626 44.0664L26.0301 33.9357C26.0301 32.8693 25.2303 32.0695 24.1639 32.0695H20.6981C19.6317 32.0695 18.8319 32.8693 18.8319 33.9357L21.7645 44.0664C21.7645 45.1328 22.5643 45.9326 23.6307 45.9326Z" fill="white"/>
</svg>
