<svg width="13" height="13" viewBox="0 0 13 13" fill="none" xmlns="http://www.w3.org/2000/svg">
<path d="M7.28354 12.06C7.18713 12.1564 7.06778 12.206 6.9273 12.2051C6.78591 12.2051 6.66748 12.1564 6.57107 12.06L4.1812 9.67013L1.20465 12.0774C1.15323 12.1142 1.09447 12.1344 1.03204 12.1325C0.969607 12.1325 0.916356 12.1087 0.872286 12.0646L0.866777 12.0591C0.765784 11.9581 0.756603 11.8498 0.838316 11.7313L3.11801 8.60511L0.865859 6.35295C0.769456 6.25655 0.719878 6.13719 0.720796 5.99672C0.720796 5.85533 0.769456 5.73689 0.865859 5.64049C1.32217 5.18418 1.87855 4.91793 2.53684 4.84356C2.54327 4.84264 2.5497 4.84172 2.55704 4.84172C3.97003 4.6939 5.29029 4.06775 6.29564 3.0624L6.31675 3.04128C6.60963 2.7484 6.73174 2.32882 6.65646 1.92117C6.64452 1.85599 6.63901 1.78805 6.6381 1.71735C6.63718 1.43732 6.73358 1.19769 6.92639 1.00489C7.12011 0.811164 7.35607 0.716597 7.64069 0.714761C7.92163 0.714761 8.16126 0.811164 8.35407 1.00397L11.9201 4.56996C12.1138 4.76368 12.2083 4.99964 12.2102 5.28426C12.2093 5.56612 12.1138 5.80483 11.9201 5.99856C11.7263 6.19228 11.4904 6.28685 11.2058 6.28868C11.1341 6.28868 11.0653 6.28226 10.9992 6.27124C10.5925 6.19504 10.1738 6.31806 9.88091 6.61095L9.86163 6.63023C8.85904 7.63282 8.2292 8.94757 8.08414 10.3578C8.08322 10.3679 8.0823 10.378 8.08047 10.389C8.0061 11.0455 7.74076 11.6028 7.28354 12.06Z" fill="#BDC8E4"/>
</svg>
