<svg width="15" height="9" viewBox="0 0 15 9" fill="none" xmlns="http://www.w3.org/2000/svg">
<path d="M13.7551 0.143687H12.4318H10.2877H7.74159H5.12847H2.81687H1.1753C0.907286 0.143687 0.689527 0.205107 0.522019 0.327945C0.354512 0.450784 0.240048 0.607124 0.178629 0.796966C0.11721 0.986807 0.114418 1.19619 0.170254 1.42512C0.22609 1.65405 0.348928 1.88018 0.53877 2.10352C0.951955 2.55021 1.38747 3.01923 1.84533 3.51059C2.30318 4.00194 2.7722 4.49888 3.25239 5.0014L4.65945 6.50897C5.13964 7.01149 5.59749 7.49726 6.03301 7.96628C6.23402 8.17846 6.47411 8.3348 6.75329 8.4353C7.03247 8.53581 7.32003 8.58327 7.61596 8.57768C7.91189 8.5721 8.20223 8.50789 8.487 8.38505C8.77176 8.26221 9.02023 8.08912 9.2324 7.86578C10.0029 7.06174 10.807 6.1907 11.6445 5.25266C12.482 4.31462 13.3587 3.30958 14.2744 2.23753C14.4866 1.98068 14.6317 1.72663 14.7099 1.47537C14.7881 1.22411 14.802 1.00077 14.7518 0.805341C14.7015 0.609916 14.5898 0.450784 14.4168 0.327945C14.2437 0.205107 14.0231 0.143687 13.7551 0.143687Z" fill="#0099FF"/>
</svg>
