<svg width="14" height="15" viewBox="0 0 14 15" fill="none" xmlns="http://www.w3.org/2000/svg">
<path d="M7.02204 6.55214L12.3634 1.21019C12.4421 1.13119 12.5357 1.0685 12.6387 1.02573C12.7416 0.982956 12.8521 0.960938 12.9636 0.960938C13.0751 0.960937 13.1855 0.982956 13.2885 1.02573C13.3915 1.0685 13.4851 1.13119 13.5638 1.21019C13.6427 1.28894 13.7053 1.38249 13.7481 1.48548C13.7908 1.58847 13.8128 1.69888 13.8128 1.81038C13.8128 1.92188 13.7908 2.03229 13.7481 2.13527C13.7053 2.23826 13.6427 2.33181 13.5638 2.41056L8.22184 7.7525L13.5632 13.0939C13.8949 13.4255 13.8971 13.9603 13.5632 14.2942C13.4845 14.3732 13.3909 14.4358 13.2879 14.4785C13.1849 14.5213 13.0745 14.5433 12.963 14.5433C12.8515 14.5433 12.7411 14.5213 12.6381 14.4785C12.5351 14.4358 12.4416 14.3732 12.3628 14.2942L7.02204 8.95231L1.68066 14.2948C1.60195 14.3738 1.50841 14.4365 1.40542 14.4793C1.30242 14.5221 1.192 14.5441 1.08047 14.5441C0.968952 14.5441 0.858526 14.5221 0.755533 14.4793C0.652539 14.4365 0.559003 14.3738 0.480291 14.2948C0.401354 14.2161 0.338727 14.1225 0.295996 14.0195C0.253266 13.9165 0.23127 13.8061 0.23127 13.6946C0.23127 13.5831 0.253266 13.4727 0.295996 13.3697C0.338727 13.2667 0.401354 13.1732 0.480291 13.0944L5.82223 7.7525L0.479725 2.41113C0.400721 2.33241 0.338034 2.23888 0.29526 2.13589C0.252487 2.03289 0.230469 1.92247 0.230469 1.81094C0.230469 1.69942 0.252487 1.589 0.29526 1.486C0.338034 1.38301 0.400721 1.28947 0.479725 1.21076C0.558475 1.13182 0.652023 1.0692 0.755012 1.02647C0.858001 0.983734 0.968407 0.961739 1.07991 0.961739C1.19141 0.961739 1.30182 0.983734 1.40481 1.02647C1.50779 1.0692 1.60134 1.13182 1.68009 1.21076L7.02204 6.5527V6.55214Z" fill="white"/>
</svg>
