<svg width="16" height="16" viewBox="0 0 16 16" fill="none" xmlns="http://www.w3.org/2000/svg">
<path d="M8.49835 11.3123C8.38729 11.424 8.23346 11.4932 8.0635 11.4932C7.92686 11.4934 7.7941 11.4477 7.68646 11.3636C7.64806 11.3392 7.61248 11.3107 7.58036 11.2786L3.49246 7.19069C3.25301 6.95124 3.25301 6.56302 3.49246 6.32357C3.73192 6.08412 4.12014 6.08412 4.35959 6.32357L7.45035 9.41433V0.894402C7.45035 0.555767 7.72487 0.28125 8.0635 0.28125C8.40214 0.28125 8.67666 0.555767 8.67666 0.894402V9.40254L11.7556 6.32357C11.9951 6.08412 12.3833 6.08412 12.6228 6.32357C12.8622 6.56302 12.8622 6.95124 12.6228 7.19069L8.53486 11.2786C8.52303 11.2904 8.51086 11.3016 8.49835 11.3123ZM1.17565 14.0042H14.8986C15.2372 14.0042 15.5117 14.2787 15.5117 14.6173C15.5117 14.956 15.2372 15.2305 14.8986 15.2305H1.17565C0.837017 15.2305 0.5625 14.956 0.5625 14.6173C0.5625 14.2787 0.837017 14.0042 1.17565 14.0042Z" fill="white"/>
</svg>
