<svg width="16" height="16" viewBox="0 0 16 16" fill="none" xmlns="http://www.w3.org/2000/svg">
<path d="M14.1818 8.1318C14.1818 7.97938 14.2423 7.83319 14.3501 7.72541C14.4579 7.61763 14.6041 7.55708 14.7565 7.55708C14.9089 7.55708 15.0551 7.61763 15.1629 7.72541C15.2707 7.83319 15.3312 7.97938 15.3312 8.1318V12.9212C15.3312 14.085 14.3877 15.0285 13.2239 15.0285H2.87881C1.71499 15.0285 0.771484 14.085 0.771484 12.9212V3.15085C0.771484 1.98703 1.71499 1.04352 2.87881 1.04352H7.85977C8.0122 1.04352 8.15838 1.10407 8.26616 1.21185C8.37394 1.31963 8.43449 1.46582 8.43449 1.61825C8.43449 1.77067 8.37394 1.91686 8.26616 2.02464C8.15838 2.13242 8.0122 2.19297 7.85977 2.19297H2.87881C2.62477 2.19297 2.38113 2.29389 2.20149 2.47353C2.02185 2.65316 1.92094 2.8968 1.92094 3.15085V12.9212C1.92094 13.1752 2.02185 13.4189 2.20149 13.5985C2.38113 13.7781 2.62477 13.8791 2.87881 13.8791H13.2239C13.4779 13.8791 13.7216 13.7781 13.9012 13.5985C14.0808 13.4189 14.1818 13.1752 14.1818 12.9212V8.1318ZM13.4264 3.15085L11.8137 1.4374C11.7092 1.32638 11.6531 1.17841 11.6578 1.02604C11.6624 0.873677 11.7274 0.729391 11.8384 0.624928C11.9494 0.520465 12.0974 0.464381 12.2498 0.469016C12.4021 0.473651 12.5464 0.538623 12.6509 0.649641L15.1751 3.33169C15.5203 3.69837 15.2601 4.3003 14.7565 4.3003H11.8715C10.4047 4.3003 9.2008 5.57926 9.2008 7.17393V10.6223C9.2008 10.7747 9.14025 10.9209 9.03246 11.0287C8.92468 11.1365 8.7785 11.197 8.62607 11.197C8.47364 11.197 8.32746 11.1365 8.21968 11.0287C8.1119 10.9209 8.05134 10.7747 8.05134 10.6223V7.17393C8.05134 4.95951 9.75368 3.15085 11.8715 3.15085H13.4264Z" fill="white"/>
</svg>
